<?xml version="1.0" encoding="utf-8"?>
<!-- Generator: Adobe Illustrator 24.3.0, SVG Export Plug-In . SVG Version: 6.00 Build 0)  -->
<svg version="1.1" id="Vrstva_1" xmlns="http://www.w3.org/2000/svg" xmlns:xlink="http://www.w3.org/1999/xlink" x="0px" y="0px"
	 viewBox="0 0 20 20" style="enable-background:new 0 0 20 20;" xml:space="preserve">
<style type="text/css">
	.st0{enable-background:new    ;}
	.st1{fill:#E8E8E8;}
</style>
<g class="st0">
	<path class="st1" d="M4.3,18.5c-0.8,0-1.4-0.2-1.8-0.6c-0.4-0.4-0.6-1-0.6-1.7v-4.4c0-0.3-0.1-0.5-0.2-0.7
		c-0.1-0.1-0.3-0.2-0.6-0.2H0.5v-1h0.6c0.3,0,0.5-0.1,0.6-0.2s0.2-0.4,0.2-0.7V4.5c0-0.8,0.2-1.4,0.6-1.7c0.4-0.4,1-0.6,1.8-0.6H5v1
		H4.5c-0.5,0-0.8,0.1-1,0.4c-0.2,0.2-0.3,0.6-0.3,1v4.3c0,0.3,0,0.6-0.1,0.8c-0.1,0.2-0.2,0.3-0.4,0.5S2.2,10.4,2,10.4v-0.2
		c0.3,0,0.5,0.1,0.7,0.2S2.9,10.8,3,11c0.1,0.2,0.1,0.5,0.1,0.8v4.3c0,0.4,0.1,0.8,0.3,1c0.2,0.2,0.6,0.4,1,0.4H5v1H4.3z"/>
	<path class="st1" d="M15.7,18.5H15v-1h0.5c0.5,0,0.8-0.1,1-0.4c0.2-0.2,0.3-0.6,0.3-1v-4.3c0-0.3,0-0.6,0.1-0.8
		c0.1-0.2,0.2-0.4,0.4-0.5s0.4-0.2,0.7-0.2v0.2c-0.3-0.1-0.5-0.1-0.7-0.2S17.1,9.9,17,9.7c-0.1-0.2-0.1-0.5-0.1-0.8V4.6
		c0-0.4-0.1-0.8-0.3-1c-0.2-0.2-0.6-0.4-1-0.4H15v-1h0.7c0.8,0,1.4,0.2,1.8,0.6c0.4,0.4,0.6,1,0.6,1.7v4.4c0,0.3,0.1,0.5,0.2,0.7
		c0.1,0.1,0.3,0.2,0.6,0.2h0.6v1h-0.6c-0.2,0-0.4,0.1-0.6,0.2c-0.1,0.1-0.2,0.4-0.2,0.7v4.4c0,0.8-0.2,1.3-0.6,1.7
		C17.1,18.3,16.5,18.5,15.7,18.5z"/>
</g>
<g>
	<path class="st1" d="M10,3.9c-2.5,0-4.5,2-4.5,4.5c0,2.4,4.1,7.9,4.2,8.2l0.1,0.3c0,0,0,0,0.1,0c0,0,0,0,0.1,0l0.1-0.3
		c0.1-0.3,4.2-5.8,4.2-8.2C14.5,5.9,12.5,3.9,10,3.9z M10,6.8c0.9,0,1.6,0.7,1.6,1.6S10.9,9.9,10,9.9S8.4,9.3,8.4,8.4
		S9.1,6.8,10,6.8z"/>
</g>
</svg>
